<?xml version="1.0" encoding="utf-8"?>
<!-- Generator: Adobe Illustrator 25.0.0, SVG Export Plug-In . SVG Version: 6.00 Build 0)  -->
<svg version="1.1" id="Camada_1" xmlns="http://www.w3.org/2000/svg" xmlns:xlink="http://www.w3.org/1999/xlink" x="0px" y="0px"
	 width="250.2px" height="231.7px" viewBox="0 0 250.2 231.7" style="enable-background:new 0 0 250.2 231.7;" xml:space="preserve"
	>
<style type="text/css">
	.st0{fill:none;stroke:#FF6D00;stroke-width:3;stroke-miterlimit:10;}
</style>
<path class="st0" d="M187.4,28.5c-16.1-9.4-32-9.2-49-13.5c-17.2-4.4-27.9-10.7-46.6-6.7c-66.6,14.4-99.3,93.5-74,158.9
	c12.1,31.2,40.5,56.1,72.2,57.2c15.8,0.6,31.3-4.5,46.1-10.5c25-10.1,48.9-23,72.7-35.8c9.1-4.9,18.5-10,24.9-18.4
	c14.3-18.5,9.9-46.3,0.2-67.8C223.4,68.7,209.3,41.3,187.4,28.5z"/>
</svg>
